<svg version="1.2" xmlns="http://www.w3.org/2000/svg" viewBox="0 0 512 512" width="512" height="512">
	<title>perspective-dice-six-svg</title>
	<style>
		.s0 { fill: #000000 } 
	</style>
	<path id="Layer" fill-rule="evenodd" class="s0" d="m272.8 46.9l152.8 88.4c9.6 5.5 9.6 14.3 0 19.8l-152.8 88.4c-9.5 5.5-24.7 5.5-34.2 0l-152.8-88.4c-9.6-5.5-9.6-14.3 0-19.8l152.8-88.4c4.7-2.8 10.9-4.1 17.1-4.1 6.2 0 12.4 1.3 17.1 4.1zm-44.8 58.3q-4.8 1.9-9.1 4.5-13.4 8-10.3 19.4 3 11.2 21.7 22.9 18.3 11.5 34.9 13.8 16.5 2.2 28.5-5 10.9-6.5 10-14.9-0.8-8.5-13-16.1-11-6.9-23.6-7.6-12.5-0.8-22 4.8-3.7 2.3-5.7 5-1.9 2.7-2.1 5.8-8.9-6.3-9.8-11.7-0.9-5.4 6.2-9.7 3.3-1.9 7.9-3.3 4.5-1.4 10.7-2.4l-14-8.7q-5.5 1.3-10.3 3.2zm34.2 29.1q0.4 0 0.7 0 0.3 0.1 0.6 0.1 0.4 0.1 0.7 0.1 5.4 0.8 12 4.9 6.7 4.2 7.9 7.5 1.2 3.3-3 5.9-4.1 2.5-9.5 1.7-5.4-0.9-12.1-5-6.6-4.2-7.8-7.5-1.3-3.3 2.9-5.8 3.1-1.9 7-1.9 0.3 0 0.6 0zm183.9 49.8v157.7c0 11.1-7.6 24.2-17.2 29.7l-146.9 84.9c-9.6 5.5-17.2 1.1-17.2-9.9v-157.7c0-11.1 7.6-24.2 17.2-29.7l146.9-84.9c2.7-1.5 5-2.3 7-2.4 4.9-0.2 7.7 4.3 10.2 12.3zm-363-9.9l146.9 84.9c9.6 5.5 17.2 18.6 17.2 29.7v157.7c0 11-7.6 15.4-17.2 9.9l-146.9-84.9c-9.6-5.5-17.2-18.6-17.2-29.7v-157.7c0.2-6.5 4-11.8 10.2-11.8 2.1 0 4.4 0.6 7 1.9zm45.4 136.4q4.6 0.4 8.5 1.6 1 0.3 2 0.7 0.9 0.3 1.9 0.8 0.9 0.4 1.8 0.9 0.9 0.4 1.8 1 5.9 3.5 9.3 9.1 3.5 5.7 3.5 12 0 6.2-3.5 7.8-3.4 1.6-9.3-2-4.1-2.4-8.7-7.1-4.6-4.6-9.8-11.4v16.1q5.2 5.7 10.4 10.2 5.3 4.5 10.7 7.7 12.4 7.5 19.4 4.4 7-3.1 7-15.9 0-13-6.4-24.1-6.4-11.1-18-18-2-1.3-3.9-2-0.4-0.2-0.9-0.4-0.5-0.2-0.9-0.3-0.5-0.2-1-0.3-0.4-0.2-0.9-0.3v-12.3l27.5 16.5v-15l-40.5-24.3zm236.2-32.8l-22.7 61.4v17.7l25.2-15.1v14.6l13.8-8.3v-14.6l8.1-4.8v-15l-8.1 4.8v-50.5zm2.5 49.1l-16.1 9.6 16.1-43.2z"/>
</svg>